<svg width="40" height="40" viewBox="0 0 40 40" fill="none" xmlns="http://www.w3.org/2000/svg">
    <path d="M15.25 18.7667H6.91665C6.06489 18.7623 5.24926 18.422 4.64696 17.8197C4.04467 17.2174 3.70436 16.4018 3.69998 15.55V7.21667C3.70436 6.3649 4.04467 5.54927 4.64696 4.94698C5.24926 4.34468 6.06489 4.00438 6.91665 4H15.25C16.1017 4.00438 16.9174 4.34468 17.5197 4.94698C18.122 5.54927 18.4623 6.3649 18.4666 7.21667V15.55C18.4623 16.4018 18.122 17.2174 17.5197 17.8197C16.9174 18.422 16.1017 18.7623 15.25 18.7667ZM6.91665 6.5C6.72791 6.50424 6.54808 6.58111 6.41458 6.7146C6.28109 6.8481 6.20422 7.02793 6.19998 7.21667V15.55C6.19998 15.7401 6.27549 15.9224 6.40989 16.0568C6.54429 16.1912 6.72658 16.2667 6.91665 16.2667H15.25C15.4401 16.2667 15.6223 16.1912 15.7567 16.0568C15.8911 15.9224 15.9666 15.7401 15.9666 15.55V7.21667C15.9666 7.02659 15.8911 6.84431 15.7567 6.70991C15.6223 6.57551 15.4401 6.5 15.25 6.5H6.91665Z" fill="#2D2D2D"/>
    <path d="M33.0833 18.7667H24.75C23.8982 18.7623 23.0826 18.422 22.4803 17.8197C21.878 17.2174 21.5377 16.4018 21.5333 15.55V7.21667C21.5377 6.3649 21.878 5.54927 22.4803 4.94698C23.0826 4.34468 23.8982 4.00438 24.75 4H33.0833C33.9351 4.00438 34.7507 4.34468 35.353 4.94698C35.9553 5.54927 36.2956 6.3649 36.3 7.21667V15.55C36.2956 16.4018 35.9553 17.2174 35.353 17.8197C34.7507 18.422 33.9351 18.7623 33.0833 18.7667ZM24.75 6.5C24.5599 6.5 24.3776 6.57551 24.2432 6.70991C24.1088 6.84431 24.0333 7.02659 24.0333 7.21667V15.55C24.0333 15.7401 24.1088 15.9224 24.2432 16.0568C24.3776 16.1912 24.5599 16.2667 24.75 16.2667H33.0833C33.2734 16.2667 33.4557 16.1912 33.5901 16.0568C33.7245 15.9224 33.8 15.7401 33.8 15.55V7.21667C33.8 7.02659 33.7245 6.84431 33.5901 6.70991C33.4557 6.57551 33.2734 6.5 33.0833 6.5H24.75Z" fill="#2D2D2D"/>
    <path d="M15.25 36H6.91665C6.06489 35.9956 5.24926 35.6553 4.64696 35.053C4.04467 34.4507 3.70436 33.6351 3.69998 32.7833V24.45C3.70436 23.5982 4.04467 22.7826 4.64696 22.1803C5.24926 21.578 6.06489 21.2377 6.91665 21.2333H15.25C16.1017 21.2377 16.9174 21.578 17.5197 22.1803C18.122 22.7826 18.4623 23.5982 18.4666 24.45V32.7833C18.4623 33.6351 18.122 34.4507 17.5197 35.053C16.9174 35.6553 16.1017 35.9956 15.25 36ZM6.91665 23.7333C6.72658 23.7333 6.54429 23.8088 6.40989 23.9432C6.27549 24.0776 6.19998 24.2599 6.19998 24.45V32.7833C6.20422 32.9721 6.28109 33.1519 6.41458 33.2854C6.54808 33.4189 6.72791 33.4958 6.91665 33.5H15.25C15.4401 33.5 15.6223 33.4245 15.7567 33.2901C15.8911 33.1557 15.9666 32.9734 15.9666 32.7833V24.45C15.9666 24.2599 15.8911 24.0776 15.7567 23.9432C15.6223 23.8088 15.4401 23.7333 15.25 23.7333H6.91665Z" fill="#2D2D2D"/>
    <path d="M33.0833 36H24.75C23.8982 35.9956 23.0826 35.6553 22.4803 35.053C21.878 34.4507 21.5377 33.6351 21.5333 32.7833V24.45C21.5377 23.5982 21.878 22.7826 22.4803 22.1803C23.0826 21.578 23.8982 21.2377 24.75 21.2333H33.0833C33.9351 21.2377 34.7507 21.578 35.353 22.1803C35.9553 22.7826 36.2956 23.5982 36.3 24.45V32.7833C36.2956 33.6351 35.9553 34.4507 35.353 35.053C34.7507 35.6553 33.9351 35.9956 33.0833 36ZM24.75 23.7333C24.5599 23.7333 24.3776 23.8088 24.2432 23.9432C24.1088 24.0776 24.0333 24.2599 24.0333 24.45V32.7833C24.0333 32.9734 24.1088 33.1557 24.2432 33.2901C24.3776 33.4245 24.5599 33.5 24.75 33.5H33.0833C33.2734 33.5 33.4557 33.4245 33.5901 33.2901C33.7245 33.1557 33.8 32.9734 33.8 32.7833V24.45C33.8 24.2599 33.7245 24.0776 33.5901 23.9432C33.4557 23.8088 33.2734 23.7333 33.0833 23.7333H24.75Z" fill="#2D2D2D"/>
    </svg>
    