<svg width="25" height="25" viewBox="0 0 25 25" fill="none" xmlns="http://www.w3.org/2000/svg">
<rect x="0.0639648" y="0.358154" width="24.0716" height="24.0716" rx="8" fill="#53B175"/>
<path fill-rule="evenodd" clip-rule="evenodd" d="M19.0625 8.75121C19.0625 9.10093 18.9249 9.42944 18.6885 9.65794L11.1716 16.9397C10.9075 17.1811 10.5623 17.32 10.2155 17.32C9.86539 17.32 9.52304 17.1788 9.27952 16.9434L5.51101 13.3007C5.27462 13.0722 5.13705 12.7437 5.13705 12.394C5.13705 12.063 5.27688 11.7449 5.52726 11.4874C5.78406 11.2543 6.11197 11.1243 6.4707 11.1107C6.82057 11.1125 7.14558 11.2399 7.40321 11.4755L10.2155 14.1939L16.7964 7.83271C17.054 7.59713 17.379 7.46975 17.7289 7.46796C18.09 7.48166 18.4169 7.61315 18.6724 7.86011C18.919 8.09855 19.0625 8.41558 19.0625 8.75121Z" fill="#FCFCFC"/>
</svg>
