<svg width="40" height="40" viewBox="0 0 40 40" fill="none" xmlns="http://www.w3.org/2000/svg">
    <path d="M29.8833 30.2C28.1172 30.1967 26.3917 29.67 24.9248 28.6864C23.4579 27.7028 22.3155 26.3064 21.6419 24.6738C20.9683 23.0411 20.7938 21.2455 21.1403 19.5137C21.4869 17.7819 22.339 16.1917 23.5891 14.944C24.8391 13.6963 26.4309 12.8471 28.1633 12.5038C29.8957 12.1604 31.6911 12.3383 33.3225 13.0149C34.9538 13.6916 36.3481 14.8366 37.3289 16.3053C38.3098 17.774 38.8333 19.5005 38.8333 21.2667C38.8289 23.6375 37.884 25.9097 36.206 27.5845C34.5281 29.2593 32.2541 30.2 29.8833 30.2ZM29.8833 14.8333C28.6116 14.8366 27.3695 15.2167 26.3137 15.9256C25.2579 16.6345 24.436 17.6404 23.9516 18.8163C23.4672 19.9921 23.3422 21.2851 23.5923 22.5319C23.8424 23.7788 24.4564 24.9235 25.3568 25.8216C26.2572 26.7196 27.4035 27.3307 28.651 27.5776C29.8985 27.8245 31.1912 27.6961 32.3657 27.2087C33.5403 26.7213 34.5441 25.8967 35.2502 24.8391C35.9564 23.7815 36.3333 22.5383 36.3333 21.2667C36.3333 20.4204 36.1664 19.5825 35.842 18.8009C35.5177 18.0193 35.0423 17.3093 34.4431 16.7117C33.844 16.1141 33.1328 15.6406 32.3504 15.3182C31.5679 14.9959 30.7296 14.8311 29.8833 14.8333Z" fill="#2D2D2D"/>
    <path d="M28.3333 26.3833C28.1316 26.3809 27.9327 26.3355 27.75 26.25C27.5495 26.1401 27.3819 25.9787 27.2647 25.7824C27.1475 25.5861 27.0849 25.362 27.0833 25.1333V17.7833C27.0849 17.5547 27.1475 17.3306 27.2647 17.1343C27.3819 16.938 27.5495 16.7765 27.75 16.6667C27.9539 16.5615 28.1826 16.5137 28.4115 16.5284C28.6405 16.5431 28.8612 16.6197 29.05 16.75L34.3167 20.4333C34.4817 20.5485 34.6165 20.7019 34.7095 20.8803C34.8026 21.0588 34.8512 21.2571 34.8512 21.4583C34.8512 21.6596 34.8026 21.8579 34.7095 22.0363C34.6165 22.2148 34.4817 22.3681 34.3167 22.4833L28.9667 26.1667C28.7792 26.2951 28.5602 26.37 28.3333 26.3833ZM29.5833 20.1833V22.7333L31.4167 21.45L29.5833 20.1833Z" fill="#2D2D2D"/>
    <path d="M24.9 37.8833H14.9C13.2481 37.8834 11.6634 37.2295 10.4923 36.0646C9.32115 34.8997 8.65878 33.3185 8.64997 31.6667V8.33334C8.64778 7.51039 8.8077 6.69506 9.12061 5.93391C9.43351 5.17277 9.89328 4.48071 10.4736 3.89725C11.054 3.31378 11.7436 2.85035 12.5031 2.5334C13.2626 2.21645 14.077 2.05219 14.9 2.05H24.9C25.7229 2.05219 26.5374 2.21645 27.2969 2.5334C28.0563 2.85035 28.7459 3.31378 29.3263 3.89725C29.9067 4.48071 30.3664 5.17277 30.6793 5.93391C30.9922 6.69506 31.1522 7.51039 31.15 8.33334V13.5667C31.15 13.8982 31.0183 14.2161 30.7839 14.4506C30.5494 14.685 30.2315 14.8167 29.9 14.8167C29.5685 14.8167 29.2505 14.685 29.0161 14.4506C28.7817 14.2161 28.65 13.8982 28.65 13.5667V8.33334C28.65 7.33877 28.2549 6.38495 27.5516 5.68169C26.8484 4.97842 25.8945 4.58334 24.9 4.58334H14.9C13.9054 4.58334 12.9516 4.97842 12.2483 5.68169C11.5451 6.38495 11.15 7.33877 11.15 8.33334V31.6667C11.15 32.6612 11.5451 33.6151 12.2483 34.3183C12.9516 35.0216 13.9054 35.4167 14.9 35.4167H24.9C25.8945 35.4167 26.8484 35.0216 27.5516 34.3183C28.2549 33.6151 28.65 32.6612 28.65 31.6667V28.95C28.65 28.6185 28.7817 28.3005 29.0161 28.0661C29.2505 27.8317 29.5685 27.7 29.9 27.7C30.2315 27.7 30.5494 27.8317 30.7839 28.0661C31.0183 28.3005 31.15 28.6185 31.15 28.95V31.6667C31.1368 33.3171 30.473 34.8958 29.3028 36.0597C28.1326 37.2237 26.5505 37.879 24.9 37.8833Z" fill="#2D2D2D"/>
    <path d="M19.9 32.8833C19.7337 32.8839 19.5691 32.8498 19.4166 32.7833C19.2679 32.7201 19.1322 32.6297 19.0166 32.5167C18.8986 32.4018 18.8025 32.2662 18.7333 32.1167C18.6227 31.8039 18.6227 31.4627 18.7333 31.15C18.8025 31.0005 18.8986 30.8649 19.0166 30.75C19.1275 30.6314 19.2645 30.5401 19.4166 30.4833C19.5664 30.4177 19.7281 30.3838 19.8916 30.3838C20.0551 30.3838 20.2169 30.4177 20.3666 30.4833C20.5257 30.5359 20.6689 30.6276 20.7833 30.75C20.8963 30.8656 20.9867 31.0013 21.05 31.15C21.116 31.3026 21.1501 31.4671 21.1501 31.6333C21.1501 31.7996 21.116 31.9641 21.05 32.1167C20.9867 32.2654 20.8963 32.4011 20.7833 32.5167C20.5471 32.7482 20.2306 32.8795 19.9 32.8833Z" fill="#2D2D2D"/>
    </svg>
    